# xmcd CD database file
#
# Track frame offsets:
#	187
#	21140
#	38352
#	50025
#	66807
#	89812
#	108077
#	131695
#	149085
#	167312
#	185130
#	202427
#	216010
#	236600
#	250692
#	259890
#
# Disc length: 3510 seconds
#
# Revision: 0
# Processed by: cddbd v1.4PL0 Copyright (c) Steve Scherf et al.
# Submitted via: CDex 1.50Beta7
#
DISCID=f10db410
DTITLE=Eddie Condon -  The Town Hall Concerts, Vol. 8
DYEAR=1944
DGENRE=Jazz
TTITLE0=Ballin' the Jack 
TTITLE1=The Sheik of Araby 
TTITLE2=China Boy 
TTITLE3=There's a Small Hotel
TTITLE4=Royal Garden Blues 
TTITLE5=Wherever There's Love (There's You and Me)
TTITLE6=Impromptu Ensemble 
TTITLE7=Jingle Bells 
TTITLE8=On the Sunny Side of the Street 
TTITLE9=D.A. Blues (District Attorney) 
TTITLE10=Blue Skies 
TTITLE11=Rosetta 
TTITLE12=Exactly Like You
TTITLE13=Ja-Da 
TTITLE14=You're Lucky to Me 
TTITLE15=Impromptu Ensemble 
EXTD=YEAR: 1944
EXTT0=
EXTT1=
EXTT2=
EXTT3=
EXTT4=
EXTT5=
EXTT6=
EXTT7=
EXTT8=
EXTT9=
EXTT10=
EXTT11=
EXTT12=
EXTT13=
EXTT14=
EXTT15=
PLAYORDER=
